<svg width="42" height="42" viewBox="0 0 42 42" fill="none" xmlns="http://www.w3.org/2000/svg">
<mask id="mask0_169_1161" style="mask-type:alpha" maskUnits="userSpaceOnUse" x="0" y="0" width="42" height="42">
<circle cx="21" cy="21" r="21" fill="white"/>
</mask>
<g mask="url(#mask0_169_1161)">
<circle cx="21" cy="21" r="21" fill="white"/>
<path fill-rule="evenodd" clip-rule="evenodd" d="M6.47188 0H35.5281C39.1023 0 42 2.89758 42 6.47188V35.5281C42 39.1023 39.1023 42 35.5281 42H6.47188C2.89758 42 0 39.1023 0 35.5281V6.47188C0 2.89758 2.89758 0 6.47188 0Z" fill="#4C75A3"/>
<path fill-rule="evenodd" clip-rule="evenodd" d="M20.7211 28.9413H22.2751C22.2751 28.9413 22.7444 28.8925 22.9844 28.6488C23.2049 28.4248 23.1979 28.0045 23.1979 28.0045C23.1979 28.0045 23.1675 26.0363 24.1351 25.7465C25.0894 25.4608 26.3145 27.6486 27.6129 28.4899C28.5948 29.1264 29.341 28.9871 29.341 28.9871L32.8132 28.9413C32.8132 28.9413 34.6295 28.8355 33.7682 27.4876C33.6977 27.3775 33.2665 26.4906 31.1865 24.6683C29.0091 22.761 29.301 23.0696 31.9236 19.7704C33.5208 17.7612 34.1592 16.5346 33.9597 16.0093C33.7696 15.5088 32.5948 15.641 32.5948 15.641L28.6854 15.6638C28.6854 15.6638 28.3953 15.6266 28.1806 15.7479C27.9704 15.8665 27.8356 16.1438 27.8356 16.1438C27.8356 16.1438 27.2166 17.6984 26.3917 19.0208C24.6509 21.8108 23.9547 21.9585 23.6701 21.7849C23.0081 21.3811 23.1735 20.163 23.1735 19.2974C23.1735 16.5935 23.608 15.4662 22.3274 15.1744C21.9025 15.0776 21.5894 15.0136 20.5026 15.0031C19.1076 14.9897 17.9272 15.0072 17.2586 15.3163C16.8139 15.5218 16.4707 15.9798 16.6798 16.0062C16.9383 16.0387 17.5233 16.1553 17.8335 16.5536C18.2343 17.0682 18.2202 18.2234 18.2202 18.2234C18.2202 18.2234 18.4505 21.4063 17.6826 21.8015C17.1557 22.0727 16.4328 21.5191 14.8808 18.9879C14.0857 17.6913 13.4852 16.258 13.4852 16.258C13.4852 16.258 13.3696 15.9902 13.163 15.8468C12.9125 15.6731 12.5625 15.6181 12.5625 15.6181L8.84744 15.641C8.84744 15.641 8.28987 15.6557 8.08497 15.8846C7.90268 16.0884 8.07041 16.5093 8.07041 16.5093C8.07041 16.5093 10.9787 22.9317 14.2721 26.1683C17.2922 29.1361 20.7211 28.9413 20.7211 28.9413Z" fill="white"/>
</g>
</svg>
