<svg width="42" height="42" viewBox="0 0 42 42" fill="none" xmlns="http://www.w3.org/2000/svg">
<mask id="mask0_169_1177" style="mask-type:alpha" maskUnits="userSpaceOnUse" x="0" y="0" width="42" height="42">
<circle cx="21" cy="21" r="21" fill="white"/>
</mask>
<g mask="url(#mask0_169_1177)">
<circle cx="21" cy="21" r="21" fill="white"/>
<path d="M41.9998 35.6964C41.9998 39.1216 39.2232 41.8979 35.7983 41.8979H5.60533C2.18029 41.8979 -0.596191 39.1216 -0.596191 35.6964V5.7208C-0.596191 2.29577 2.18029 -0.480713 5.60533 -0.480713H35.7983C39.2233 -0.480713 41.9998 2.29577 41.9998 5.7208V35.6964Z" fill="#FAAB62"/>
<path d="M41.781 35.5426C41.781 38.9324 39.033 41.6804 35.6432 41.6804H5.7603C2.37049 41.6804 -0.377441 38.9324 -0.377441 35.5426V5.8748C-0.377441 2.48499 2.3706 -0.262939 5.7603 -0.262939H35.6432C39.033 -0.262939 41.781 2.4851 41.781 5.8748V35.5426Z" fill="#F7931E"/>
<path d="M21 7C17.134 7 14 10.134 14 13.9998C14 17.8658 17.134 21 21 21C24.866 21 28 17.8658 28 13.9998C28 10.134 24.866 7 21 7ZM21 16.8936C19.4019 16.8936 18.1064 15.598 18.1064 13.9999C18.1064 12.4019 19.4019 11.1064 21 11.1064C22.5981 11.1064 23.8936 12.4019 23.8936 13.9999C23.8936 15.598 22.5981 16.8936 21 16.8936Z" fill="white"/>
<path d="M23.1568 26.7081C25.979 26.1332 27.6701 24.7967 27.7596 24.725C28.5854 24.0627 28.7181 22.8564 28.0558 22.0304C27.3936 21.2046 26.1874 21.072 25.3614 21.7342C25.3439 21.7483 23.5402 23.132 20.5724 23.134C17.6046 23.132 15.7628 21.7483 15.7453 21.7342C14.9193 21.072 13.7131 21.2046 13.0509 22.0304C12.3886 22.8564 12.5213 24.0627 13.3471 24.725C13.4378 24.7977 15.1987 26.169 18.1 26.7304L14.0566 30.9561C13.3218 31.7181 13.3438 32.9315 14.1059 33.6663C14.4778 34.025 14.9572 34.2032 15.4362 34.2032C15.9384 34.2032 16.4401 34.007 16.8162 33.6169L20.5725 29.6155L24.7082 33.6428C25.4575 34.391 26.6709 34.3898 27.4188 33.6407C28.1668 32.8916 28.1659 31.678 27.4167 30.93L23.1568 26.7081Z" fill="white"/>
<path d="M20.5723 23.134C20.5672 23.134 20.5773 23.1341 20.5723 23.1343C20.5673 23.1341 20.5774 23.134 20.5723 23.134Z" fill="white"/>
</g>
</svg>
